Coordinates
version=1
nRows=32
nColumns=22
inDegrees=yes

Units are S.I. units (second, meters, Newtons, ...)
If the header above contains a line with 'inDegrees', this indicates whether rotational values are in degrees (yes) or radians (no).

endheader
time	pelvis_tilt	pelvis_list	pelvis_rotation	pelvis_tx	pelvis_ty	pelvis_tz	hip_flexion_r	hip_adduction_r	hip_rotation_r	knee_angle_r	ankle_angle_r	subtalar_angle_r	hip_flexion_l	hip_adduction_l	hip_rotation_l	knee_angle_l	ankle_angle_l	subtalar_angle_l	lumbar_extension	lumbar_bending	lumbar_rotation
      5.05000000	     -8.59619556	      1.73534936	    -53.12840101	      1.01700707	      0.81371553	      0.95933704	    -14.15450861	     -0.90473166	     17.63346204	    -15.53550456	     22.13901798	     -3.00343487	     39.36902930	    -15.91444149	     -2.24351113	    -20.72143225	     -2.01932895	      7.73050901	      1.24755081	      2.22513110	     21.00490978
      5.06000000	     -8.34941859	      2.06074942	    -52.88794379	      1.02642481	      0.81372554	      0.96278813	    -14.29854511	     -1.54640252	     17.46026822	    -16.08535924	     21.15382333	     -2.59419132	     39.73233706	    -15.10206874	     -1.87440935	    -22.11387134	     -2.79815695	      8.22953999	      1.29399888	      1.61743725	     20.69148800
      5.07000000	     -8.06310810	      2.37457773	    -52.58466738	      1.03597521	      0.81406326	      0.96617108	    -14.45425286	     -2.18094326	     17.24548173	    -16.67877097	     20.03613709	     -2.18780301	     40.03858837	    -14.21561785	     -1.54428946	    -23.49467869	     -3.26728106	      8.46615327	      1.29460513	      0.98652056	     20.34742943
      5.08000000	     -7.76859550	      2.66721092	    -52.24389037	      1.04561738	      0.81471151	      0.96952137	    -14.59838522	     -2.78045000	     17.00053790	    -17.32539128	     18.75259253	     -1.79921157	     40.26841128	    -13.30868424	     -1.28708409	    -24.81425456	     -3.41923883	      8.45431031	      1.26925466	      0.36994534	     20.01055486
      5.09000000	     -7.48858250	      2.92899449	    -51.90091865	      1.05530306	      0.81565870	      0.97285743	    -14.71860424	     -3.33048370	     16.75853098	    -18.01541468	     17.29877296	     -1.34993710	     40.39815764	    -12.43265945	     -1.13714962	    -26.02502720	     -3.28236483	      8.21560694	      1.22962452	     -0.19662499	     19.72125087
      5.10000000	     -7.25429314	      3.15017016	    -51.58712328	      1.06496739	      0.81687630	      0.97617836	    -14.78430861	     -3.80430518	     16.55750942	    -18.75828698	     15.69027576	     -0.92063075	     40.42215329	    -11.63883106	     -1.09289557	    -27.09262663	     -2.90509177	      7.83544423	      1.19163973	     -0.66993661	     19.50341146
      5.11000000	     -7.07655942	      3.30472426	    -51.30147102	      1.07457100	      0.81836112	      0.97944702	    -14.78894921	     -4.17689341	     16.35272888	    -19.57084280	     13.92881067	     -0.54956862	     40.32834705	    -10.94997703	     -1.12076681	    -27.99888160	     -2.38012923	      7.45015101	      1.13888090	     -1.01992164	     19.34837812
      5.12000000	     -6.95650317	      3.40466707	    -51.11152446	      1.08399748	      0.82011096	      0.98273752	    -14.69445670	     -4.46567645	     16.24777013	    -20.47192374	     12.03839655	     -0.11254798	     40.09872121	    -10.40962915	     -1.27703757	    -28.71998281	     -1.69236966	      6.99287387	      1.09217164	     -1.25431140	     19.31645130
      5.13000000	     -6.89735528	      3.44809807	    -50.99889826	      1.09322047	      0.82208922	      0.98601781	    -14.47761270	     -4.65871707	     16.19185800	    -21.49638715	     10.06564330	      0.30631623	     39.74908792	    -10.00566882	     -1.50807988	    -29.25874356	     -0.92436313	      6.58724938	      1.05253033	     -1.36951551	     19.36798741
      5.14000000	     -6.89002470	      3.43497102	    -50.96488043	      1.10219944	      0.82428275	      0.98931427	    -14.13694222	     -4.75896532	     16.19136119	    -22.65529746	      8.03809050	      0.68534251	     39.28264136	     -9.73218084	     -1.79614031	    -29.62670695	     -0.11956315	      6.25654580	      1.01631435	     -1.38049778	     19.49730026
      5.15000000	     -6.91853360	      3.38099231	    -50.99958217	      1.11092338	      0.82665287	      0.99262163	    -13.65697461	     -4.78488805	     16.21832154	    -23.97693156	      6.02640029	      1.08539762	     38.71518321	     -9.55684604	     -2.12595867	    -29.84074757	      0.68784312	      5.93356158	      0.98738351	     -1.31342868	     19.66767387
      5.16000000	     -6.97454998	      3.29614952	    -51.09581398	      1.11936439	      0.82915754	      0.99597060	    -13.03383864	     -4.74302306	     16.26700321	    -25.47197968	      4.07137967	      1.41901628	     38.06643602	     -9.46373457	     -2.47986801	    -29.92466102	      1.46596285	      5.68572270	      0.97006570	     -1.19003009	     19.87175092
      5.17000000	     -7.04238377	      3.19563038	    -51.23802551	      1.12751676	      0.83174877	      0.99937226	    -12.26623772	     -4.65249656	     16.30085090	    -27.14518956	      2.24736412	      1.69648562	     37.35496028	     -9.41967244	     -2.84222409	    -29.90321049	      2.19411681	      5.48187995	      0.96611566	     -1.04100453	     20.08442465
      5.18000000	     -7.10977743	      3.09450848	    -51.41365769	      1.13538842	      0.83436630	      1.00279800	    -11.35017655	     -4.54222330	     16.26885592	    -28.99041049	      0.63480423	      1.92068965	     36.60151677	     -9.39431677	     -3.19838911	    -29.79664981	      2.86123734	      5.30271834	      0.97626662	     -0.88815256	     20.29586154
      5.19000000	     -7.16353953	      3.01012737	    -51.60611114	      1.14299558	      0.83695786	      1.00623792	    -10.28909049	     -4.44266300	     16.12393993	    -30.98613020	     -0.68431735	      2.08222045	     35.81857864	     -9.35564290	     -3.54609807	    -29.61139874	      3.46361086	      5.13888671	      1.00294125	     -0.76012014	     20.48361873
      5.20000000	     -7.17977733	      2.95353482	    -51.80597027	      1.15035925	      0.83949704	      1.00964577	     -9.10428398	     -4.39465125	     15.84901339	    -33.08606937	     -1.64022443	      2.16829071	     35.01031119	     -9.26600370	     -3.87055149	    -29.36564463	      3.99657532	      4.99399395	      1.03194673	     -0.68572438	     20.64536764
      5.21000000	     -7.15604827	      2.93171582	    -52.00194302	      1.15751579	      0.84195288	      1.01299828	     -7.81051069	     -4.42240696	     15.41520693	    -35.23496090	     -2.16883293	      2.18325959	     34.18109554	     -9.11345270	     -4.18266783	    -29.05386091	      4.47024463	      4.84926616	      1.06598603	     -0.67284211	     20.76218957
      5.22000000	     -7.08599131	      2.93044533	    -52.18127234	      1.16451427	      0.84432958	      1.01623460	     -6.45272108	     -4.53395523	     14.83347202	    -37.36197812	     -2.25017871	      2.11931782	     33.32206922	     -8.88927739	     -4.47216275	    -28.67711469	      4.89530245	      4.71185048	      1.07944488	     -0.70977094	     20.82897474
      5.23000000	     -6.98620625	      2.93924856	    -52.34020483	      1.17135138	      0.84664953	      1.01935755	     -5.05548695	     -4.71186622	     14.11404435	    -39.39741668	     -1.88613091	      1.91954824	     32.43469936	     -8.61401028	     -4.73958200	    -28.22548024	      5.21774223	      4.54040248	      1.07446540	     -0.78113449	     20.87462821
      5.24000000	     -6.85232899	      2.92923625	    -52.47148144	      1.17806724	      0.84895455	      1.02237359	     -3.68608538	     -4.92751165	     13.31878677	    -41.26712466	     -1.19964279	      1.44559899	     31.49674791	     -8.29994153	     -4.98503691	    -27.71207555	      5.54630728	      4.30669310	      1.02030408	     -0.86757569	     20.84345538
      5.25000000	     -6.70949692	      2.89036444	    -52.56057929	      1.18465518	      0.85125308	      1.02526750	     -2.36227252	     -5.14356577	     12.46493902	    -42.92323664	     -0.24235360	      0.96587104	     30.52552917	     -7.97159814	     -5.19308971	    -27.13735999	      5.80608108	      4.18793614	      0.92354107	     -0.94456707	     20.74970746
      5.26000000	     -6.57710489	      2.79765046	    -52.59658964	      1.19112557	      0.85356275	      1.02804139	     -1.11935911	     -5.31626669	     11.55586573	    -44.32009967	      0.86273882	      0.38190903	     29.53189714	     -7.66307665	     -5.36685877	    -26.53216231	      6.01818950	      4.07511590	      0.77440807	     -0.97818937	     20.57720521
      5.27000000	     -6.47958912	      2.67371706	    -52.56534638	      1.19749035	      0.85584681	      1.03066681	      0.06277241	     -5.43098793	     10.60093229	    -45.43714131	      2.00559965	      0.00316628	     28.55013693	     -7.36969997	     -5.45629208	    -25.88775059	      6.17936930	      4.03055707	      0.61224775	     -0.96109537	     20.32045302
      5.28000000	     -6.40344491	      2.48045757	    -52.49925288	      1.20370865	      0.85818646	      1.03322400	      1.11438677	     -5.44415709	      9.67474185	    -46.23364914	      3.13833709	     -0.52765546	     27.52437163	     -7.13079240	     -5.50890254	    -25.19766348	      6.33185761	      3.94710320	      0.39557545	     -0.87925811	     19.97854789
      5.29000000	     -6.39044841	      2.24212429	    -52.34046415	      1.20980607	      0.86044056	      1.03559916	      2.08919807	     -5.35140246	      8.68048623	    -46.73805573	      4.20728934	     -0.71153599	     26.57707197	     -6.94961700	     -5.49039344	    -24.56811138	      6.45936335	      3.92600491	      0.16949936	     -0.71278506	     19.52261173
      5.30000000	     -6.39751529	      1.97313428	    -52.14000179	      1.21574680	      0.86268355	      1.03789323	      2.96015688	     -5.18077424	      7.69907284	    -46.93514048	      5.19395958	     -0.83724323	     25.62037663	     -6.79691076	     -5.40068511	    -23.89667675	      6.55226795	      3.89924480	     -0.07260465	     -0.51475528	     19.01401385
      5.31000000	     -6.43275081	      1.68087598	    -51.88423632	      1.22155195	      0.86486931	      1.04008036	      3.72895739	     -4.92903819	      6.72965436	    -46.82458653	      6.10022780	     -0.83426993	     24.68974266	     -6.67522169	     -5.25150691	    -23.22161216	      6.62553082	      3.87573877	     -0.31768212	     -0.27879954	     18.42528036
      5.32000000	     -6.48431237	      1.36987600	    -51.56343395	      1.22719559	      0.86695120	      1.04212073	      4.40813417	     -4.61767170	      5.75207266	    -46.44854695	      6.95428634	     -0.69434838	     23.81283531	     -6.57451701	     -5.04367482	    -22.59480161	      6.67876534	      3.86084220	     -0.57632034	     -0.02137251	     17.75725849
      5.33000000	     -6.53882688	      1.03642011	    -51.21690690	      1.23265209	      0.86898888	      1.04410790	      4.96875811	     -4.23721723	      4.86659919	    -45.77863527	      7.72817994	     -0.35950250	     22.92930394	     -6.49897133	     -4.78058783	    -21.94751978	      6.71617307	      3.83739803	     -0.85042971	      0.24566422	     17.04404271
      5.34000000	     -6.61192266	      0.74051024	    -50.81151045	      1.23795101	      0.87080709	      1.04594010	      5.49479229	     -3.84602367	      3.99870732	    -44.87317482	      8.48963541	     -0.08343100	     22.16097749	     -6.41440118	     -4.48298579	    -21.37858136	      6.75391321	      3.82468594	     -1.08137150	      0.49943198	     16.25805983
      5.35000000	     -6.67645814	      0.42886103	    -50.40829998	      1.24300215	      0.87255155	      1.04772338	      5.91882649	     -3.40518154	      3.28866550	    -43.71784645	      9.21109989	      0.30807000	     21.39000871	     -6.35477329	     -4.16353461	    -20.80740493	      6.77739874	      3.79592902	     -1.33732581	      0.74743290	     15.49014278
      5.36000000	     -6.75156980	      0.17726177	    -49.96836769	      1.24787939	      0.87405170	      1.04937909	      6.32601112	     -2.98612942	      2.65709127	    -42.35394886	      9.92894139	      0.51337916	     20.74033860	     -6.27015086	     -3.83212749	    -20.31275214	      6.80959716	      3.77100915	     -1.53507095	      0.95867539	     14.69345241
